<svg width="14" height="12" viewBox="0 0 14 12" fill="none" xmlns="http://www.w3.org/2000/svg">
<path d="M9.00034 0L10.2201 1.33301H12.3333C13.0667 1.33301 13.6664 1.93366 13.6664 2.66699V10.667C13.6662 11.4002 13.0666 12 12.3333 12H1.66635C0.933274 11.9998 0.333521 11.4001 0.333344 10.667V2.66699C0.333344 1.93377 0.933166 1.33319 1.66635 1.33301H3.77963L5.00034 0H9.00034ZM7.00034 3.33301C5.16034 3.33301 3.66635 4.82699 3.66635 6.66699C3.66653 8.50684 5.16044 10 7.00034 10C8.84008 9.99982 10.3332 8.50673 10.3333 6.66699C10.3333 4.8271 8.84019 3.33318 7.00034 3.33301ZM7.00034 4.5332C8.17839 4.53338 9.13315 5.48889 9.13315 6.66699C9.13297 7.84494 8.17828 8.79963 7.00034 8.7998C5.82224 8.7998 4.86672 7.84505 4.86655 6.66699C4.86655 5.48878 5.82213 4.5332 7.00034 4.5332Z" fill="#969696"/>
</svg>
